<?xml version="1.0" encoding="utf-8"?>
<!-- Svg Vector Icons : http://www.onlinewebfonts.com/icon -->
<!DOCTYPE svg PUBLIC "-//W3C//DTD SVG 1.1//EN" "http://www.w3.org/Graphics/SVG/1.1/DTD/svg11.dtd">
<svg version="1.1" xmlns="http://www.w3.org/2000/svg" xmlns:xlink="http://www.w3.org/1999/xlink" x="0px" y="0px" viewBox="0 0 256 256" enable-background="new 0 0 256 256" xml:space="preserve">
<metadata> Svg Vector Icons : http://www.onlinewebfonts.com/icon </metadata>
<g><g><g><path fill="#FFF" d="M43.3,42.4L10,75.6V128v52.4l33.3,33.3l33.3,33.3H128h51.4l33.3-33.3l33.3-33.3V128V75.6l-33.3-33.3L179.4,9.1H128H76.6L43.3,42.4z M198,58.4l27.2,27.2v42.6v42.7L198,198l-27.2,27.2h-42.7H85.6L58.5,198l-27.2-27.2v-42.7V85.6l27.1-27.1l27.2-27.2h42.7h42.7L198,58.4z"/><path fill="#FFEC9E" d="M98.5,49c-1.1,2.9-6.1,15.9-11.1,28.7c-4.9,12.8-9.1,23.4-9.2,23.4s-3.6-6.1-7.6-13.5C66.6,80,63.1,74,62.9,74c-0.2,0-5,4.4-10.6,9.8l-10.1,9.8v35.2v35.1l10,10l10,10l0.1-33.3l0.1-33.4l9.5,18.2c5.2,10,9.6,18.2,9.8,18.1c0.1-0.1,4.7-11.6,10.2-25.6l9.9-25.4l0.1,55.8l0.1,55.7l6.8-0.3c3.7-0.2,8.7-0.3,11-0.3h4.3l-0.1-84.8l-0.1-84.8h-11.6h-11.6L98.5,49z"/><path fill="#FFEC9E" d="M139.8,127.8v84.1h12.4h12.4l24.6-24.5l24.6-24.5v-17.4V128h-18.7h-18.7v10v10h7.8h7.8v3.9v3.9l-15.4,15.4l-15.4,15.4v-58V70.5l16.3,16.1l16.2,16.1l0.1,4.4l0.1,4.4h9.6h9.6l0.3-9.6l0.3-9.6L189.5,68l-24.3-24.3h-12.7h-12.7V127.8z"/></g></g></g>
</svg>